<svg viewBox="0 0 40 40" xmlns="http://www.w3.org/2000/svg">
  <circle cx="20" cy="20" r="20" fill="#1c6870" />
  <path
    d="M4 24c3-2 5-2 8 0s5 2 8 0 5-2 8 0 5 2 8 0"
    stroke="#fdf9f1"
    stroke-width="2.4"
    fill="none"
    stroke-linecap="round"
  />
  <path
    d="M4 30c3-2 5-2 8 0s5 2 8 0 5-2 8 0 5 2 8 0"
    stroke="#fdf9f1"
    stroke-opacity="0.55"
    stroke-width="2.2"
    fill="none"
    stroke-linecap="round"
  />
  <path
    d="M20 6l1.4 3.3L25 11l-3.6 1.7L20 16l-1.4-3.3L15 11l3.6-1.7L20 6z"
    fill="#f0e0bc"
  />
</svg>
